<mxfile host="app.diagrams.net" agent="Mozilla/5.0 (Windows NT 10.0; Win64; x64) AppleWebKit/537.36 (KHTML, like Gecko) Chrome/135.0.0.0 Safari/537.36" version="26.2.13">
  <diagram name="第 1 页" id="AFJyQcVeSW685-_X5HAW">
    <mxGraphModel dx="2080" dy="874" grid="0" gridSize="10" guides="1" tooltips="1" connect="1" arrows="1" fold="1" page="0" pageScale="1" pageWidth="827" pageHeight="1169" math="0" shadow="0">
      <root>
        <mxCell id="0" />
        <mxCell id="1" parent="0" />
        <mxCell id="JrvSDV8koQsrAmterAyV-1" value="" style="rounded=0;whiteSpace=wrap;fontColor=default;labelBackgroundColor=none;fillColor=default;strokeColor=default;align=center;html=1;" vertex="1" parent="1">
          <mxGeometry x="-88" y="98" width="270" height="100" as="geometry" />
        </mxCell>
        <mxCell id="JrvSDV8koQsrAmterAyV-3" value="block_id block_hash" style="rounded=1;whiteSpace=wrap;html=1;" vertex="1" parent="1">
          <mxGeometry x="-78" y="112" width="120" height="20" as="geometry" />
        </mxCell>
        <mxCell id="JrvSDV8koQsrAmterAyV-9" value="&lt;span style=&quot;text-align: left;&quot;&gt;ref_cnt&lt;/span&gt;" style="rounded=1;whiteSpace=wrap;html=1;" vertex="1" parent="1">
          <mxGeometry x="52" y="112" width="120" height="20" as="geometry" />
        </mxCell>
        <mxCell id="JrvSDV8koQsrAmterAyV-10" value="&lt;span style=&quot;text-align: left;&quot;&gt;prev_free_block&lt;/span&gt;" style="rounded=1;whiteSpace=wrap;html=1;fillColor=#dae8fc;strokeColor=#6c8ebf;" vertex="1" parent="1">
          <mxGeometry x="-78" y="157" width="120" height="30" as="geometry" />
        </mxCell>
        <mxCell id="JrvSDV8koQsrAmterAyV-50" style="edgeStyle=orthogonalEdgeStyle;rounded=0;orthogonalLoop=1;jettySize=auto;html=1;" edge="1" parent="1">
          <mxGeometry relative="1" as="geometry">
            <mxPoint x="217" y="161" as="targetPoint" />
            <mxPoint x="172" y="160.99999999999994" as="sourcePoint" />
          </mxGeometry>
        </mxCell>
        <mxCell id="JrvSDV8koQsrAmterAyV-11" value="&lt;span style=&quot;text-align: left;&quot;&gt;next_free_block&lt;/span&gt;" style="rounded=1;whiteSpace=wrap;html=1;fillColor=#ffe6cc;strokeColor=#d79b00;" vertex="1" parent="1">
          <mxGeometry x="52" y="157" width="120" height="30" as="geometry" />
        </mxCell>
        <mxCell id="JrvSDV8koQsrAmterAyV-13" value="&lt;span style=&quot;color: rgb(25, 27, 31); font-family: -apple-system, BlinkMacSystemFont, &amp;quot;Helvetica Neue&amp;quot;, &amp;quot;PingFang SC&amp;quot;, &amp;quot;Microsoft YaHei&amp;quot;, &amp;quot;Source Han Sans SC&amp;quot;, &amp;quot;Noto Sans CJK SC&amp;quot;, &amp;quot;WenQuanYi Micro Hei&amp;quot;, sans-serif; font-style: normal; font-variant-ligatures: normal; font-variant-caps: normal; font-weight: 400; letter-spacing: normal; orphans: 2; text-align: start; text-indent: 0px; text-transform: none; widows: 2; word-spacing: 0px; -webkit-text-stroke-width: 0px; white-space: pre-wrap; background-color: rgb(255, 255, 255); text-decoration-thickness: initial; text-decoration-style: initial; text-decoration-color: initial; float: none; display: inline !important;&quot;&gt;Block&lt;/span&gt;" style="text;whiteSpace=wrap;html=1;fontSize=10;" vertex="1" parent="1">
          <mxGeometry x="-86" y="73" width="70" height="30" as="geometry" />
        </mxCell>
        <mxCell id="JrvSDV8koQsrAmterAyV-20" value="" style="rounded=0;whiteSpace=wrap;fontColor=default;labelBackgroundColor=none;fillColor=default;strokeColor=default;align=center;html=1;" vertex="1" parent="1">
          <mxGeometry x="216" y="98" width="270" height="100" as="geometry" />
        </mxCell>
        <mxCell id="JrvSDV8koQsrAmterAyV-21" value="block_id block_hash" style="rounded=1;whiteSpace=wrap;html=1;" vertex="1" parent="1">
          <mxGeometry x="226" y="112" width="120" height="20" as="geometry" />
        </mxCell>
        <mxCell id="JrvSDV8koQsrAmterAyV-22" value="&lt;span style=&quot;text-align: left;&quot;&gt;ref_cnt&lt;/span&gt;" style="rounded=1;whiteSpace=wrap;html=1;" vertex="1" parent="1">
          <mxGeometry x="356" y="112" width="120" height="20" as="geometry" />
        </mxCell>
        <mxCell id="JrvSDV8koQsrAmterAyV-49" style="edgeStyle=orthogonalEdgeStyle;rounded=0;orthogonalLoop=1;jettySize=auto;html=1;exitX=0;exitY=0.5;exitDx=0;exitDy=0;" edge="1" parent="1">
          <mxGeometry relative="1" as="geometry">
            <mxPoint x="183.5862405711207" y="175.75862068965523" as="targetPoint" />
            <mxPoint x="226" y="176" as="sourcePoint" />
          </mxGeometry>
        </mxCell>
        <mxCell id="JrvSDV8koQsrAmterAyV-23" value="&lt;span style=&quot;text-align: left;&quot;&gt;prev_free_block&lt;/span&gt;" style="rounded=1;whiteSpace=wrap;html=1;fillColor=#dae8fc;strokeColor=#6c8ebf;" vertex="1" parent="1">
          <mxGeometry x="226" y="157" width="120" height="30" as="geometry" />
        </mxCell>
        <mxCell id="JrvSDV8koQsrAmterAyV-51" style="edgeStyle=orthogonalEdgeStyle;rounded=0;orthogonalLoop=1;jettySize=auto;html=1;exitX=1;exitY=0.5;exitDx=0;exitDy=0;" edge="1" parent="1">
          <mxGeometry relative="1" as="geometry">
            <mxPoint x="517.3600097656249" y="162.2" as="targetPoint" />
            <mxPoint x="476" y="162" as="sourcePoint" />
          </mxGeometry>
        </mxCell>
        <mxCell id="JrvSDV8koQsrAmterAyV-24" value="&lt;span style=&quot;text-align: left;&quot;&gt;next_free_block&lt;/span&gt;" style="rounded=1;whiteSpace=wrap;html=1;fillColor=#ffe6cc;strokeColor=#d79b00;" vertex="1" parent="1">
          <mxGeometry x="356" y="157" width="120" height="30" as="geometry" />
        </mxCell>
        <mxCell id="JrvSDV8koQsrAmterAyV-25" value="&lt;span style=&quot;color: rgb(25, 27, 31); font-family: -apple-system, BlinkMacSystemFont, &amp;quot;Helvetica Neue&amp;quot;, &amp;quot;PingFang SC&amp;quot;, &amp;quot;Microsoft YaHei&amp;quot;, &amp;quot;Source Han Sans SC&amp;quot;, &amp;quot;Noto Sans CJK SC&amp;quot;, &amp;quot;WenQuanYi Micro Hei&amp;quot;, sans-serif; font-style: normal; font-variant-ligatures: normal; font-variant-caps: normal; font-weight: 400; letter-spacing: normal; orphans: 2; text-align: start; text-indent: 0px; text-transform: none; widows: 2; word-spacing: 0px; -webkit-text-stroke-width: 0px; white-space: pre-wrap; background-color: rgb(255, 255, 255); text-decoration-thickness: initial; text-decoration-style: initial; text-decoration-color: initial; float: none; display: inline !important;&quot;&gt;Block&lt;/span&gt;" style="text;whiteSpace=wrap;html=1;fontSize=10;" vertex="1" parent="1">
          <mxGeometry x="218" y="73" width="70" height="30" as="geometry" />
        </mxCell>
        <mxCell id="JrvSDV8koQsrAmterAyV-38" value="" style="rounded=0;whiteSpace=wrap;fontColor=default;labelBackgroundColor=none;fillColor=default;strokeColor=default;align=center;html=1;" vertex="1" parent="1">
          <mxGeometry x="516" y="98" width="270" height="100" as="geometry" />
        </mxCell>
        <mxCell id="JrvSDV8koQsrAmterAyV-39" value="block_id block_hash" style="rounded=1;whiteSpace=wrap;html=1;" vertex="1" parent="1">
          <mxGeometry x="526" y="112" width="120" height="20" as="geometry" />
        </mxCell>
        <mxCell id="JrvSDV8koQsrAmterAyV-40" value="&lt;span style=&quot;text-align: left;&quot;&gt;ref_cnt&lt;/span&gt;" style="rounded=1;whiteSpace=wrap;html=1;" vertex="1" parent="1">
          <mxGeometry x="656" y="112" width="120" height="20" as="geometry" />
        </mxCell>
        <mxCell id="JrvSDV8koQsrAmterAyV-48" style="edgeStyle=orthogonalEdgeStyle;rounded=0;orthogonalLoop=1;jettySize=auto;html=1;exitX=0;exitY=0.5;exitDx=0;exitDy=0;entryX=1;entryY=0.75;entryDx=0;entryDy=0;" edge="1" parent="1" source="JrvSDV8koQsrAmterAyV-41" target="JrvSDV8koQsrAmterAyV-20">
          <mxGeometry relative="1" as="geometry" />
        </mxCell>
        <mxCell id="JrvSDV8koQsrAmterAyV-41" value="&lt;span style=&quot;text-align: left;&quot;&gt;prev_free_block&lt;/span&gt;" style="rounded=1;whiteSpace=wrap;html=1;fillColor=#dae8fc;strokeColor=#6c8ebf;" vertex="1" parent="1">
          <mxGeometry x="526" y="157" width="120" height="30" as="geometry" />
        </mxCell>
        <mxCell id="JrvSDV8koQsrAmterAyV-42" value="&lt;span style=&quot;text-align: left;&quot;&gt;next_free_block&lt;/span&gt;" style="rounded=1;whiteSpace=wrap;html=1;fillColor=#ffe6cc;strokeColor=#d79b00;" vertex="1" parent="1">
          <mxGeometry x="656" y="157" width="120" height="30" as="geometry" />
        </mxCell>
        <mxCell id="JrvSDV8koQsrAmterAyV-43" value="&lt;span style=&quot;color: rgb(25, 27, 31); font-family: -apple-system, BlinkMacSystemFont, &amp;quot;Helvetica Neue&amp;quot;, &amp;quot;PingFang SC&amp;quot;, &amp;quot;Microsoft YaHei&amp;quot;, &amp;quot;Source Han Sans SC&amp;quot;, &amp;quot;Noto Sans CJK SC&amp;quot;, &amp;quot;WenQuanYi Micro Hei&amp;quot;, sans-serif; font-style: normal; font-variant-ligatures: normal; font-variant-caps: normal; font-weight: 400; letter-spacing: normal; orphans: 2; text-align: start; text-indent: 0px; text-transform: none; widows: 2; word-spacing: 0px; -webkit-text-stroke-width: 0px; white-space: pre-wrap; background-color: rgb(255, 255, 255); text-decoration-thickness: initial; text-decoration-style: initial; text-decoration-color: initial; float: none; display: inline !important;&quot;&gt;Block&lt;/span&gt;" style="text;whiteSpace=wrap;html=1;fontSize=10;" vertex="1" parent="1">
          <mxGeometry x="518" y="73" width="70" height="30" as="geometry" />
        </mxCell>
        <mxCell id="JrvSDV8koQsrAmterAyV-44" value="&lt;font face=&quot;-apple-system, BlinkMacSystemFont, Helvetica Neue, PingFang SC, Microsoft YaHei, Source Han Sans SC, Noto Sans CJK SC, WenQuanYi Micro Hei, sans-serif&quot; color=&quot;#191b1f&quot;&gt;&lt;span style=&quot;white-space-collapse: preserve; background-color: rgb(255, 255, 255);&quot;&gt;double link&lt;/span&gt;&lt;/font&gt;" style="text;whiteSpace=wrap;html=1;fontSize=10;" vertex="1" parent="1">
          <mxGeometry x="172" y="137" width="70" height="30" as="geometry" />
        </mxCell>
        <mxCell id="JrvSDV8koQsrAmterAyV-45" value="&lt;font face=&quot;-apple-system, BlinkMacSystemFont, Helvetica Neue, PingFang SC, Microsoft YaHei, Source Han Sans SC, Noto Sans CJK SC, WenQuanYi Micro Hei, sans-serif&quot; color=&quot;#191b1f&quot;&gt;&lt;span style=&quot;white-space-collapse: preserve; background-color: rgb(255, 255, 255);&quot;&gt;double link&lt;/span&gt;&lt;/font&gt;" style="text;whiteSpace=wrap;html=1;fontSize=10;" vertex="1" parent="1">
          <mxGeometry x="471" y="137" width="70" height="30" as="geometry" />
        </mxCell>
      </root>
    </mxGraphModel>
  </diagram>
</mxfile>
